<svg xmlns="http://www.w3.org/2000/svg" viewBox="0 0 512 512">
  <defs>
    
  </defs>
  <g transform="translate(256 256) scale(0.62) translate(-252.5 -263)">
  <g fill="#000000">
    <rect x="148" y="170" width="76" height="156" rx="38"/>
    <path d="M 96 280 A 90 90 0 0 0 276 280" fill="none" stroke="#000000" stroke-width="34" stroke-linecap="round"/>
    <rect x="169" y="366" width="34" height="70"/>
    <path fill-rule="evenodd" d="M 290 90 H 392 A 34 34 0 0 1 426 124 V 191 A 34 34 0 0 1 392 225 H 290 A 34 34 0 0 1 256 191 V 124 A 34 34 0 0 1 290 90 Z M 282 157 a 17 17 0 1 0 34 0 a 17 17 0 1 0 -34 0 Z M 324 157 a 17 17 0 1 0 34 0 a 17 17 0 1 0 -34 0 Z M 366 157 a 17 17 0 1 0 34 0 a 17 17 0 1 0 -34 0 Z"/>
    <path d="M 360 210 L 418 210 L 346 290 Z"/>
  </g>
  </g>
</svg>
